<svg id="Capa_1" enable-background="new 0 0 512 512" height="512" viewBox="0 0 512 512" width="512" xmlns="http://www.w3.org/2000/svg"><g><path d="m472.072 392.475h-28.175v-89.65h-89.623v58.658c-64.604-11.478-131.89-11.59-196.547-.341v-59.022h-89.624v89.651h-28.175v29.874h28.175v89.651h89.623v-59.021c32.002 5.567 64.646 8.363 97.293 8.363 33.314 0 66.625-2.907 99.254-8.704v60.066h89.623v-89.651h28.175v-29.874zm-344.22 88.946h-29.874v-149.426h29.874zm224.265-59.447c-63.78 11.726-130.415 11.726-194.195 0v-30.531c63.78-11.726 130.415-11.726 194.195 0zm61.905 60.151h-29.874v-149.425h29.874z"/><path d="m257.393 324.512 156.035-159.133c37.552-38.298 36.945-100.008-1.353-137.56-18.552-18.191-43.057-28.077-69.06-27.814-25.982.256-50.308 10.615-68.499 29.167l-19.828 20.222-20.221-19.828c-18.552-18.191-43.031-28.042-69.06-27.814-25.982.256-50.309 10.614-68.5 29.166-18.192 18.553-28.069 43.079-27.814 69.06.256 25.982 10.614 50.308 29.166 68.499zm-.416-42.247-89.004-87.271 33.841.117 17.832-18.627 33.221 38.735 52.688-52.687 15.042 20.842h33.345zm-138.739-230.432c26.019-26.536 68.777-26.955 95.313-.937l41.552 40.744 40.744-41.552c12.604-12.855 29.46-20.032 47.462-20.209 17.998-.149 34.996 6.667 47.85 19.271 26.536 26.02 26.957 68.777.937 95.313l-8.861 9.037h-47.356l-26.635-36.905-54.696 54.696-33.685-39.275-31.764 33.177-51.701-.177-18.223-17.868c-26.536-26.021-26.956-68.779-.937-95.315z"/></g></svg>